<svg width="96" height="97" viewBox="0 0 96 97" fill="none" xmlns="http://www.w3.org/2000/svg">
<path d="M18.0482 36.0864C19.3592 36.0864 20.5671 36.7974 21.2035 37.9436L25.6176 45.895C26.1955 46.9361 26.2228 48.1953 25.6901 49.2604L21.4377 57.7655C21.4377 57.7655 22.67 64.1013 27.8276 69.2588C32.9851 74.4164 39.2997 75.6275 39.2997 75.6275L47.8034 71.3757C48.8692 70.8427 50.1294 70.8703 51.1709 71.4493L59.1448 75.8826C60.2898 76.5193 61 77.7264 61 79.0366V88.1909C61 92.8528 56.6698 96.2199 52.2526 94.7293C43.1805 91.6682 29.0982 85.8398 20.1725 76.9139C11.2466 67.9882 5.41821 53.9059 2.35707 44.8338C0.866649 40.4166 4.23371 36.0864 8.89551 36.0864H18.0482Z" stroke="currentColor" stroke-width="2" stroke-linejoin="round"/>
<path d="M94.9994 29.2526C94.9994 44.8561 82.3503 57.5052 66.7468 57.5052C58.3084 57.5052 38.4941 57.5052 38.4941 57.5052C38.4941 57.5052 38.4941 36.4177 38.4941 29.2526C38.4941 13.6491 51.1433 1 66.7468 1C82.3503 1 94.9994 13.6491 94.9994 29.2526Z" stroke="currentColor" stroke-width="2" stroke-linecap="round" stroke-linejoin="round"/>
<path d="M52.625 20.777H78.0523" stroke="currentColor" stroke-width="2" stroke-linecap="round" stroke-linejoin="round"/>
<path d="M52.625 32.0781H78.0523" stroke="currentColor" stroke-width="2" stroke-linecap="round" stroke-linejoin="round"/>
<path d="M52.625 43.3789H66.7513" stroke="currentColor" stroke-width="2" stroke-linecap="round" stroke-linejoin="round"/>
</svg>
