<svg id="Capa_1" data-name="Capa 1" xmlns="http://www.w3.org/2000/svg" xmlns:xlink="http://www.w3.org/1999/xlink" viewBox="0 0 2147.14 2361.85"><defs><style>.cls-1{fill:url(#Degradado_sin_nombre_211);}.cls-2{fill:url(#Degradado_sin_nombre_209);}</style><linearGradient id="Degradado_sin_nombre_211" x1="2293.56" y1="-166.38" x2="42.65" y2="2901.75" gradientUnits="userSpaceOnUse"><stop offset="0" stop-color="#f39400"/><stop offset="0.07" stop-color="#f09304"/><stop offset="0.15" stop-color="#e78f11"/><stop offset="0.23" stop-color="#d98925"/><stop offset="0.31" stop-color="#c48042"/><stop offset="0.39" stop-color="#aa7568"/><stop offset="0.47" stop-color="#8b6795"/><stop offset="0.5" stop-color="#7e62a7"/><stop offset="0.55" stop-color="#676eaa"/><stop offset="0.64" stop-color="#4282af"/><stop offset="0.73" stop-color="#2592b3"/><stop offset="0.82" stop-color="#119db6"/><stop offset="0.91" stop-color="#04a4b7"/><stop offset="1" stop-color="#00a6b8"/></linearGradient><linearGradient id="Degradado_sin_nombre_209" x1="2380.17" y1="-102.83" x2="129.26" y2="2965.29" gradientUnits="userSpaceOnUse"><stop offset="0" stop-color="#f39400"/><stop offset="0.08" stop-color="#f19204"/><stop offset="0.16" stop-color="#eb8e11"/><stop offset="0.24" stop-color="#e28625"/><stop offset="0.32" stop-color="#d57c42"/><stop offset="0.4" stop-color="#c46e68"/><stop offset="0.48" stop-color="#b05e95"/><stop offset="0.5" stop-color="#ab5a9f"/><stop offset="0.53" stop-color="#9564a2"/><stop offset="0.61" stop-color="#6878a9"/><stop offset="0.69" stop-color="#4288ae"/><stop offset="0.77" stop-color="#2595b3"/><stop offset="0.85" stop-color="#119fb6"/><stop offset="0.93" stop-color="#04a4b7"/><stop offset="1" stop-color="#00a6b8"/></linearGradient></defs><path class="cls-1" d="M169.15,1017.65,0,849c6.16-4,14.05-7.26,19.66-12.86Q430.42,425.88,840.55,15C851.71,3.84,862.72,0,878.06,0c315.6.38,631.2-.18,946.8.52,129.35.28,226,59.69,284.44,173.92,57.86,113.09,49.65,225.31-26.59,328.22-29.37,39.66-65.07,75-100.13,110q-281.41,281.3-564,561.43c-1.73,1.72-3.18,3.73-5.78,6.82,4.11,4.51,8,9.13,12.19,13.34q288.87,287,577.86,573.85c42.9,42.57,84.1,86.38,111.33,141.27,99.11,199.81-46.23,441-272.37,451.72-13,.62-26.08.43-39.13.43q-463.14,0-926.3.33c-14.87,0-25.16-4.27-35.67-14.81Q477.52,1982.8,113.63,1619.23c-50.59-50.6-51.2-120.65-1.06-170.81q466.36-466.64,932.52-933.49c12.07-12.1,23.85-16.57,40.61-16.43,92.56.75,185.13.36,277.7.36h20L352.63,1529.51c6.41,7.42,9.33,11.26,12.7,14.63Q652,1830.79,938.48,2117.54c8.94,9,17.79,13.26,30.77,13.24q421.21-.5,842.42-.3c59.45,0,99.73-39,97.42-93.41-1.09-25.75-13.55-45.53-31.41-63.35q-269.09-268.59-537.77-537.58-83-83-166.07-166c-55.2-55.13-55.84-122.49-.94-177.44q351.8-352.11,703.87-703.93c32-32,40.91-66.11,25.15-102.85-16.72-39-48-54.59-89.15-54.57q-422.14.19-844.29-.22c-13.17,0-21.72,4.91-30.56,13.76Q560,623.38,181.74,1001.57C176.93,1006.38,173.27,1012.33,169.15,1017.65Z"/><path class="cls-2" d="M897.33,1374l485.58,487.7c-3.09.32-7.6,1.2-12.1,1.21-98.08.09-196.15.27-294.22-.28-7.71,0-17.48-3.2-22.78-8.46q-157.3-156.08-313.64-313.11c-2.15-2.15-4-4.64-5.38-6.32Z"/></svg>