<svg width="120" height="22" viewBox="0 0 120 22" fill="none" xmlns="http://www.w3.org/2000/svg">
<g clip-path="url(#clip0_325_230)">
<path d="M37.19 9.63892C37.5814 9.36747 37.8986 9.03489 38.128 8.65487C38.4249 8.173 38.5734 7.63689 38.5734 7.05325C38.5734 6.361 38.4114 5.72987 38.0943 5.17337C37.7771 4.61687 37.3115 4.15539 36.7109 3.7957C36.3533 3.58532 35.908 3.42923 35.3749 3.33422C34.8485 3.24599 34.1332 3.19849 33.2425 3.19849H29.9023V17.1177H34.9767C36.2588 17.1177 37.352 16.7308 38.2157 15.9775C39.0862 15.2174 39.5315 14.2606 39.5315 13.1408C39.5315 12.2449 39.3021 11.4781 38.8433 10.8673C38.4587 10.3379 37.8986 9.92397 37.19 9.63892ZM35.908 8.51912C35.5031 8.86525 34.916 9.04169 34.1535 9.04169H32.0077V5.07836H34.0388C34.8755 5.07836 35.5031 5.24802 35.9147 5.58733C36.3196 5.9199 36.5153 6.40853 36.5153 7.07359C36.5018 7.70476 36.3061 8.17979 35.908 8.51912ZM32.0009 10.9555H34.5584C35.5031 10.9555 36.2251 11.1387 36.6974 11.4984C37.163 11.8513 37.3857 12.3603 37.3857 13.0525C37.3857 13.7583 37.1563 14.2741 36.6772 14.627C36.1914 14.9867 35.4559 15.1699 34.4909 15.1699H32.0077V10.9555H32.0009Z" fill="white"/>
<path d="M53.6335 5.17346H51.6361V7.44697H50.0438H48.5728H47.8575L45.3877 13.453C45.3472 13.5548 45.2662 13.772 45.1515 14.1181C45.084 14.3217 45.0098 14.5592 44.9221 14.8171C44.8411 14.5389 44.7736 14.2946 44.7061 14.091C44.5644 13.6363 44.5104 13.5073 44.4902 13.453L42.061 7.44697H39.8477L43.7951 16.9413L42.0947 20.9861H44.1325L49.2881 9.1843H51.6431V15.0072C51.6431 15.8351 51.8386 16.4391 52.2235 16.8056C52.6078 17.1653 53.242 17.3553 54.1125 17.3553H55.2056V15.4347H54.1669C53.971 15.4347 53.836 15.394 53.7549 15.3058C53.6742 15.2107 53.6335 15.0478 53.6335 14.8171V9.19109H55.2056V7.44697H53.6335V5.17346Z" fill="white"/>
<path d="M61.0849 7.21606C59.6205 7.21606 58.4196 7.69794 57.5084 8.64125C56.5976 9.58456 56.1387 10.8333 56.1387 12.3535C56.1387 12.9982 56.2465 13.6226 56.4691 14.2062C56.6852 14.7966 57.0091 15.3192 57.4207 15.7671C57.8862 16.2761 58.4599 16.6697 59.1077 16.948C59.7555 17.2194 60.4709 17.362 61.2199 17.362C62.1241 17.362 62.9538 17.1923 63.6762 16.853C64.398 16.5136 65.073 15.9843 65.6801 15.2717L65.7949 15.136L64.3441 13.9619L64.2363 14.0908C63.8243 14.5659 63.3659 14.9324 62.8662 15.1767C62.3735 15.421 61.8405 15.5432 61.2673 15.5432C60.3832 15.5432 59.6407 15.2921 59.0674 14.7898C58.534 14.3284 58.2307 13.7447 58.1496 13.0186H66.1123V12.7199C66.1123 11.0844 65.6463 9.74745 64.7285 8.74981C63.7976 7.72508 62.576 7.21606 61.0849 7.21606ZM59.0805 9.72711C59.6271 9.25883 60.2955 9.02131 61.0648 9.02131C61.8204 9.02131 62.4748 9.25203 63.0012 9.71352C63.4802 10.1343 63.784 10.6772 63.9124 11.3287H58.1562C58.271 10.6908 58.5813 10.1547 59.0805 9.72711Z" fill="white"/>
<path d="M77.1638 4.96977C75.8213 3.7957 73.8371 3.19849 71.2796 3.19849H68.3105V17.1177H71.2796C73.8371 17.1177 75.8213 16.5205 77.1638 15.3464C78.5134 14.1655 79.202 12.4214 79.202 10.1615C79.202 7.90155 78.5134 6.15742 77.1638 4.96977ZM71.5431 15.1767H70.4227V5.15301H71.5431C73.3782 5.15301 74.7685 5.57378 75.6929 6.41533C76.6107 7.25003 77.0696 8.50558 77.0696 10.1683C77.0696 11.8174 76.6041 13.0797 75.6929 13.9144C74.7751 14.7492 73.3782 15.1767 71.5431 15.1767Z" fill="white"/>
<path d="M88.2518 8.66847C87.8805 8.27486 87.4554 7.95587 86.9834 7.71836C86.3693 7.41297 85.6877 7.26367 84.9523 7.26367C83.4945 7.26367 82.3071 7.72516 81.416 8.64133C80.5254 9.5575 80.0801 10.7723 80.0801 12.2517C80.0801 12.9372 80.1949 13.5751 80.4176 14.1587C80.6402 14.7424 80.9843 15.2785 81.4296 15.7468C81.8955 16.2287 82.4421 16.6019 83.0426 16.8598C83.6431 17.1109 84.2843 17.2398 84.9523 17.2398C85.7013 17.2398 86.3759 17.0973 86.9562 16.8123C87.3949 16.5951 87.7929 16.2965 88.1304 15.9165V17.1245H90.1141V7.44691H88.2518V8.66847ZM87.3612 9.9715C87.9279 10.5687 88.2181 11.3424 88.2181 12.2721C88.2181 13.2086 87.9279 13.9823 87.3612 14.5795C86.7945 15.17 86.059 15.4686 85.1749 15.4686C84.2909 15.4686 83.5554 15.17 82.9887 14.5795C82.4215 13.9891 82.1313 13.2154 82.1313 12.2721C82.1313 11.3356 82.4215 10.5619 82.9887 9.9647C83.5554 9.37427 84.2909 9.07567 85.1749 9.07567C86.059 9.07567 86.7945 9.37427 87.3612 9.9715Z" fill="white"/>
<path d="M96.2209 7.26367C95.6814 7.26367 95.1686 7.37223 94.6961 7.58941C94.3384 7.7523 93.9873 7.98302 93.6503 8.28161V7.44691H91.6797V17.1177H93.6503V11.7767C93.6503 10.8605 93.8458 10.1683 94.2236 9.72039C94.5948 9.27925 95.1752 9.05528 95.9308 9.05528C96.5988 9.05528 97.0712 9.25211 97.375 9.66606C97.6853 10.0869 97.8475 10.7723 97.8475 11.7088V17.1245H99.8313V11.5459C99.8313 10.2294 99.5073 9.18423 98.8661 8.42416C98.2253 7.65728 97.3342 7.26367 96.2209 7.26367Z" fill="white"/>
<path d="M107.786 14.566C107.537 14.8849 107.24 15.1293 106.889 15.2854C106.538 15.4482 106.126 15.5297 105.661 15.5297C104.804 15.5297 104.122 15.2378 103.589 14.6338C103.056 14.0366 102.786 13.2426 102.786 12.2857C102.786 11.3288 103.063 10.5348 103.603 9.92398C104.143 9.31319 104.817 9.0146 105.668 9.0146C106.099 9.0146 106.491 9.08923 106.828 9.23177C107.159 9.37427 107.462 9.59824 107.726 9.90363L107.854 10.0529L109.143 8.55987L109.014 8.44451C108.563 8.03055 108.056 7.71837 107.503 7.51474C106.956 7.31116 106.336 7.20935 105.661 7.20935C104.952 7.20935 104.291 7.33151 103.697 7.56227C103.104 7.79979 102.57 8.15271 102.132 8.61419C101.659 9.08923 101.302 9.64573 101.065 10.2701C100.823 10.8877 100.701 11.5663 100.701 12.2857C100.701 13.0051 100.823 13.6837 101.065 14.2945C101.308 14.9121 101.666 15.4686 102.132 15.9436C102.57 16.3983 103.104 16.7512 103.704 16.9887C104.304 17.2263 104.959 17.3485 105.668 17.3485C106.349 17.3485 106.977 17.2399 107.53 17.0295C108.084 16.8191 108.609 16.4798 109.109 16.0183L109.237 15.9029L107.928 14.3895L107.786 14.566Z" fill="white"/>
<path d="M120.001 12.7064C120.001 11.0708 119.535 9.73391 118.618 8.73627C117.693 7.73188 116.472 7.21606 114.974 7.21606C113.509 7.21606 112.308 7.69794 111.397 8.64125C110.486 9.58456 110.027 10.8333 110.027 12.3535C110.027 12.9982 110.136 13.6226 110.358 14.2062C110.574 14.7966 110.898 15.3192 111.31 15.7671C111.775 16.2761 112.349 16.6697 112.996 16.948C113.644 17.2194 114.36 17.362 115.109 17.362C116.013 17.362 116.843 17.1923 117.565 16.853C118.287 16.5136 118.962 15.9843 119.569 15.2717L119.684 15.136L118.233 13.9619L118.125 14.0908C117.713 14.5659 117.248 14.9324 116.755 15.1767C116.263 15.421 115.73 15.5432 115.156 15.5432C114.272 15.5432 113.53 15.2921 112.956 14.7898C112.423 14.3216 112.119 13.7447 112.038 13.0186H119.994V12.7064H120.001ZM112.97 9.72711C113.516 9.25883 114.184 9.02131 114.953 9.02131C115.709 9.02131 116.364 9.25203 116.89 9.71352C117.369 10.1343 117.673 10.6772 117.801 11.3287H112.045C112.167 10.6908 112.477 10.1547 112.97 9.72711Z" fill="white"/>
<path d="M5.88637 16.9617L2.34375 17.8711V1.6377L5.88637 2.55388V16.9617Z" fill="white"/>
<path d="M23.0064 17.9117L19.457 18.8211V0.6875L23.0064 1.60368V17.9117Z" fill="white"/>
<path d="M11.5075 17.4502L7.96484 18.3664V8.8042L11.5075 9.72037V17.4502Z" fill="white"/>
<path d="M13.8223 7.39266L17.3717 6.47644V16.0387L13.8223 15.1225V7.39266Z" fill="white"/>
</g>
<defs>
<clipPath id="clip0_325_230">
<rect width="120" height="20.625" fill="white" transform="translate(0 0.6875)"/>
</clipPath>
</defs>
</svg>
