<svg width="173" height="83" viewBox="0 0 173 83" fill="none" xmlns="http://www.w3.org/2000/svg">
<path fill-rule="evenodd" clip-rule="evenodd" d="M24.9102 50.8757C25.199 50.5508 25.6924 50.5108 26.0298 50.7849L56.4319 75.4866C56.7802 75.7696 56.8331 76.2813 56.5501 76.6296C56.2672 76.9779 55.7554 77.0308 55.4072 76.7478L25.6083 52.5363L10.9237 69.0565C10.6256 69.3919 10.112 69.4221 9.77662 69.124C9.44123 68.8259 9.41102 68.3123 9.70914 67.9769L24.9102 50.8757Z" fill="currentColor"/>
<path fill-rule="evenodd" clip-rule="evenodd" d="M27.4189 23.7262C23.67 23.7262 20.6309 26.7653 20.6309 30.5142C20.6309 34.2631 23.67 37.3022 27.4189 37.3022C31.1678 37.3022 34.2069 34.2631 34.2069 30.5142C34.2069 26.7653 31.1678 23.7262 27.4189 23.7262ZM19.0059 30.5142C19.0059 25.8678 22.7725 22.1012 27.4189 22.1012C32.0653 22.1012 35.8319 25.8678 35.8319 30.5142C35.8319 35.1606 32.0653 38.9272 27.4189 38.9272C22.7725 38.9272 19.0059 35.1606 19.0059 30.5142Z" fill="currentColor"/>
<path fill-rule="evenodd" clip-rule="evenodd" d="M148.93 41.108C149.144 41.0842 149.359 41.1465 149.527 41.2811L168.528 56.4821C168.879 56.7624 168.936 57.2737 168.655 57.6241C168.375 57.9745 167.864 58.0313 167.513 57.751L149.146 43.0576L134.453 61.4244C134.173 61.7748 133.661 61.8316 133.311 61.5513C132.96 61.271 132.904 60.7597 133.184 60.4093L148.385 41.408C148.52 41.2397 148.716 41.1318 148.93 41.108Z" fill="currentColor"/>
<path fill-rule="evenodd" clip-rule="evenodd" d="M86.8151 1.625C66.2756 1.625 49.625 18.2756 49.625 38.8151C49.625 59.3546 66.2756 76.0052 86.8151 76.0052C107.355 76.0052 124.005 59.3546 124.005 38.8151C124.005 18.2756 107.355 1.625 86.8151 1.625ZM48 38.8151C48 17.3781 65.3781 0 86.8151 0C108.252 0 125.63 17.3781 125.63 38.8151C125.63 60.2521 108.252 77.6302 86.8151 77.6302C65.3781 77.6302 48 60.2521 48 38.8151Z" fill="currentColor"/>
<path fill-rule="evenodd" clip-rule="evenodd" d="M72.9102 45.8757C73.199 45.5508 73.6924 45.5108 74.0298 45.7849L104.432 70.4866C104.78 70.7696 104.833 71.2813 104.55 71.6296C104.267 71.9779 103.755 72.0308 103.407 71.7478L73.6083 47.5363L58.9237 64.0565C58.6256 64.3919 58.112 64.4221 57.7766 64.124C57.4412 63.8259 57.411 63.3123 57.7091 62.9769L72.9102 45.8757Z" fill="currentColor"/>
<path fill-rule="evenodd" clip-rule="evenodd" d="M75.4189 18.7262C71.67 18.7262 68.6309 21.7653 68.6309 25.5142C68.6309 29.2631 71.67 32.3022 75.4189 32.3022C79.1678 32.3022 82.2069 29.2631 82.2069 25.5142C82.2069 21.7653 79.1678 18.7262 75.4189 18.7262ZM67.0059 25.5142C67.0059 20.8678 70.7725 17.1012 75.4189 17.1012C80.0653 17.1012 83.8319 20.8678 83.8319 25.5142C83.8319 30.1606 80.0653 33.9272 75.4189 33.9272C70.7725 33.9272 67.0059 30.1606 67.0059 25.5142Z" fill="currentColor"/>
<path fill-rule="evenodd" clip-rule="evenodd" d="M101.93 36.1079C102.144 36.0841 102.359 36.1463 102.527 36.281L121.528 51.482C121.879 51.7623 121.936 52.2736 121.655 52.624C121.375 52.9744 120.864 53.0312 120.513 52.7509L102.146 38.0574L87.4528 56.4243C87.1725 56.7747 86.6612 56.8315 86.3108 56.5512C85.9604 56.2708 85.9036 55.7595 86.1839 55.4091L101.385 36.4078C101.52 36.2396 101.716 36.1317 101.93 36.1079Z" fill="currentColor"/>
<path fill-rule="evenodd" clip-rule="evenodd" d="M108.055 70.6387C107.592 70.9474 107.121 71.2462 106.645 71.5348C113.646 78.3982 123.236 82.6302 133.815 82.6302C155.252 82.6302 172.63 65.2521 172.63 43.8151C172.63 22.3781 155.252 5 133.815 5C126.091 5 118.894 7.25593 112.848 11.1448C113.256 11.5238 113.656 11.9117 114.047 12.3081C119.774 8.70752 126.551 6.625 133.815 6.625C154.354 6.625 171.005 23.2756 171.005 43.8151C171.005 64.3546 154.354 81.0052 133.815 81.0052C123.816 81.0052 114.738 77.0589 108.055 70.6387Z" fill="currentColor"/>
<path fill-rule="evenodd" clip-rule="evenodd" d="M122.049 53.7071L150.407 76.7479C150.755 77.0308 151.267 76.9779 151.55 76.6296C151.833 76.2814 151.78 75.7697 151.431 75.4867L122.673 52.1208C122.477 52.6553 122.269 53.1842 122.049 53.7071Z" fill="currentColor"/>
<path fill-rule="evenodd" clip-rule="evenodd" d="M124.996 38.5248C128.382 37.4362 130.831 34.2613 130.831 30.5142C130.831 25.8678 127.065 22.1012 122.418 22.1012C121.968 22.1012 121.527 22.1365 121.096 22.2046C121.347 22.7142 121.588 23.2303 121.817 23.7525C122.015 23.7351 122.216 23.7262 122.418 23.7262C126.167 23.7262 129.206 26.7653 129.206 30.5142C129.206 33.3728 127.439 35.8188 124.938 36.8192C124.97 37.3846 124.989 37.9532 124.996 38.5248Z" fill="currentColor"/>
<path fill-rule="evenodd" clip-rule="evenodd" d="M49.6563 46.0688L38.1839 60.4093C37.9036 60.7597 37.9604 61.271 38.3108 61.5513C38.6612 61.8316 39.1725 61.7748 39.4528 61.4244L50.1003 48.1151C49.934 47.44 49.7859 46.7577 49.6563 46.0688Z" fill="currentColor"/>
<path fill-rule="evenodd" clip-rule="evenodd" d="M66.5116 71.0091C59.4686 78.1814 49.6614 82.6302 38.8151 82.6302C17.3781 82.6302 0 65.2521 0 43.8151C0 22.3781 17.3781 5 38.8151 5C46.8853 5 54.3803 7.46291 60.5895 11.6781C60.193 12.0614 59.8048 12.4533 59.4252 12.8535C53.5259 8.91866 46.4383 6.625 38.8151 6.625C18.2756 6.625 1.625 23.2756 1.625 43.8151C1.625 64.3546 18.2756 81.0052 38.8151 81.0052C49.0983 81.0052 58.4068 76.8316 65.139 70.086C65.5894 70.4033 66.0471 70.7111 66.5116 71.0091Z" fill="currentColor"/>
</svg>
