<svg width="100%" height="100%" viewBox="0 0 24 24" fill="none" xmlns="http://www.w3.org/2000/svg">
<g id="ri:menu-4-fill">
<path id="Vector" d="M16 19.6667C16.7364 19.6667 17.3333 20.2636 17.3333 21V21C17.3333 21.7364 16.7364 22.3333 16 22.3333H4C3.26362 22.3333 2.66667 21.7364 2.66667 21V21C2.66667 20.2636 3.26362 19.6667 4 19.6667H16ZM22.6667 10.3333C23.403 10.3333 24 10.9303 24 11.6667V11.6667C24 12.403 23.403 13 22.6667 13H1.33333C0.596954 13 0 12.403 0 11.6667V11.6667C0 10.9303 0.596954 10.3333 1.33333 10.3333H22.6667ZM20 1C20.7364 1 21.3333 1.59695 21.3333 2.33333V2.33333C21.3333 3.06971 20.7364 3.66667 20 3.66667H8C7.26362 3.66667 6.66667 3.06971 6.66667 2.33333V2.33333C6.66667 1.59695 7.26362 1 8 1H20Z" fill="currentColor"/>
</g>
</svg>
