<svg width="100" height="26" viewBox="0 0 100 26" fill="none" xmlns="http://www.w3.org/2000/svg">
<path d="M23.0287 7.7344L14.4341 1.45723C14.2568 1.33476 14.0493 1.26259 13.834 1.24843C13.6186 1.23426 13.4034 1.27865 13.2114 1.37683C13.0194 1.47501 12.8578 1.62331 12.7438 1.80587C12.6299 1.98843 12.5679 2.19839 12.5645 2.41332V8.86068L13.7305 24.7538H22.32C22.6359 24.7538 22.9389 24.6288 23.1623 24.4063C23.3857 24.1839 23.5112 23.8821 23.5112 23.5675V8.73553C23.5176 8.54232 23.477 8.35041 23.393 8.1761C23.309 8.00182 23.184 7.85029 23.0287 7.7344ZM21.4304 12.2395C21.4304 12.4334 21.3531 12.6192 21.2155 12.7563C21.0778 12.8934 20.8912 12.9704 20.6966 12.9704H19.9728C19.7782 12.9704 19.5916 12.8934 19.454 12.7563C19.3163 12.6192 19.239 12.4334 19.239 12.2395V9.28615C19.239 9.19019 19.258 9.09516 19.2949 9.0065C19.3318 8.91781 19.3858 8.83724 19.454 8.7694C19.5221 8.70152 19.603 8.64769 19.692 8.61095C19.7811 8.57425 19.8765 8.55534 19.9728 8.55534H20.6966C20.7929 8.55534 20.8884 8.57425 20.9774 8.61095C21.0664 8.64769 21.1473 8.70152 21.2155 8.7694C21.2836 8.83724 21.3376 8.91781 21.3745 9.0065C21.4114 9.09516 21.4304 9.19019 21.4304 9.28615V12.2395Z" fill="#ED764A"/>
<path d="M16.3849 11.4337L10.9467 7.79457C10.3644 7.40182 9.67728 7.19189 8.97401 7.19189C8.27072 7.19189 7.58359 7.40182 7.00129 7.79457L1.5631 11.4337C1.08261 11.7567 0.688903 12.1921 0.416413 12.7017C0.143925 13.2113 0.000952176 13.7797 0 14.357V21.2149C0 22.1442 0.370668 23.0355 1.03047 23.6926C1.69026 24.3497 2.58515 24.7189 3.51822 24.7189H7.42347V19.2476C7.42347 18.7644 7.61621 18.3009 7.95931 17.9592C8.3024 17.6175 8.76772 17.4256 9.25295 17.4256C9.73814 17.4256 10.2035 17.6175 10.5466 17.9592C10.8897 18.3009 11.0824 18.7644 11.0824 19.2476V24.7539H14.3896C15.3226 24.7539 16.2175 24.3847 16.8773 23.7276C17.5371 23.0705 17.9078 22.1792 17.9078 21.2499V14.357C17.9113 13.7833 17.7745 13.2172 17.5092 12.7079C17.2438 12.1986 16.8579 11.7613 16.3849 11.4337Z" fill="#285EF5"/>
<path d="M35.3633 20.0545H38.3242V12.6332L41.2281 17.1695H43.2021L46.1061 12.6332V20.0545H49.0861V6.65438H46.9413L42.215 14.0377L37.489 6.65438H35.3633V20.0545ZM52.8516 9.55837C53.7625 9.55837 54.4081 8.85609 54.4081 7.96401C54.4081 7.07196 53.7625 6.36968 52.8516 6.36968C51.9405 6.36968 51.2762 7.07196 51.2762 7.96401C51.2762 8.85609 51.9405 9.55837 52.8516 9.55837ZM51.39 20.0545H54.2942V10.8301H51.39V20.0545ZM60.2192 20.0545H63.1992V15.1765H65.8185C68.3618 15.1765 70.3358 13.5442 70.3358 10.906C70.3358 8.28669 68.3618 6.65438 65.8185 6.65438H60.2192V20.0545ZM65.3818 8.96998C66.5016 8.96998 67.3747 9.67226 67.3747 10.906C67.3747 12.1397 66.5016 12.8609 65.3818 12.8609H63.1992V8.96998H65.3818ZM71.8717 20.0545H74.7757V6.27478H71.8717V20.0545ZM81.3759 20.2632C82.9323 20.2632 84.242 19.7318 85.1531 18.6689L83.5588 17.0746C83.0083 17.7199 82.268 18.0236 81.3571 18.0236C80.1804 18.0236 79.3831 17.4352 79.0794 16.4103L85.6846 16.3913C85.7794 15.9168 85.8175 15.5751 85.8175 15.2335C85.8175 12.5573 83.8813 10.6213 81.1672 10.6213C78.3581 10.6213 76.2133 12.6901 76.2133 15.4423C76.2133 18.2513 78.3771 20.2632 81.3759 20.2632ZM81.1863 12.842C82.2301 12.842 82.8754 13.3734 83.1031 14.3983L79.0794 14.4173C79.364 13.4303 80.1232 12.842 81.1863 12.842ZM88.6806 9.55837C89.5917 9.55837 90.237 8.85609 90.237 7.96401C90.237 7.07196 89.5917 6.36968 88.6806 6.36968C87.7695 6.36968 87.1051 7.07196 87.1051 7.96401C87.1051 8.85609 87.7695 9.55837 88.6806 9.55837ZM87.2192 20.0545H90.1232V10.8301H87.2192V20.0545ZM95.5276 20.2822C97.8242 20.2822 99.2856 19.1624 99.2856 17.3403C99.2856 13.8859 94.8064 14.6451 94.8064 13.4683C94.8064 13.1267 95.1289 12.9179 95.7932 12.9179C96.4955 12.9179 97.2549 13.1646 97.8242 13.8479L99.4754 12.1777C98.6403 11.1148 97.2358 10.5643 95.6794 10.5643C93.4207 10.5643 91.9784 11.7601 91.9784 13.5253C91.9784 16.9227 96.4766 16.0306 96.4766 17.3782C96.4766 17.7389 96.0969 17.9477 95.4138 17.9477C94.4266 17.9477 93.5727 17.568 92.9653 16.9037L91.314 18.574C92.263 19.6179 93.8764 20.2822 95.5276 20.2822Z" fill="white"/>
</svg>
