<svg width="86" height="94" viewBox="0 0 86 94" fill="none" xmlns="http://www.w3.org/2000/svg">
<path d="M75 37V47V57" stroke="currentColor" stroke-width="2" stroke-linecap="round" stroke-linejoin="round"/>
<path d="M51 79L59 75L67 71" stroke="currentColor" stroke-width="2" stroke-linecap="round" stroke-linejoin="round"/>
<path d="M35 79L27 75L19 71" stroke="currentColor" stroke-width="2" stroke-linecap="round" stroke-linejoin="round"/>
<path d="M11 37V47V57" stroke="currentColor" stroke-width="2" stroke-linecap="round" stroke-linejoin="round"/>
<path d="M19 23L27 19L35 15" stroke="currentColor" stroke-width="2" stroke-linecap="round" stroke-linejoin="round"/>
<path d="M51 15L59 19L67 23" stroke="currentColor" stroke-width="2" stroke-linecap="round" stroke-linejoin="round"/>
<path d="M43 93C48.5228 93 53 88.9705 53 84C53 79.0295 48.5228 75 43 75C37.4772 75 33 79.0295 33 84C33 88.9705 37.4772 93 43 93Z" stroke="currentColor" stroke-width="2" stroke-linecap="round" stroke-linejoin="round"/>
<path d="M43 19C48.5228 19 53 14.9705 53 10C53 5.02943 48.5228 1 43 1C37.4772 1 33 5.02943 33 10C33 14.9705 37.4772 19 43 19Z" stroke="currentColor" stroke-width="2" stroke-linecap="round" stroke-linejoin="round"/>
<path d="M76 37C80.9705 37 85 32.9705 85 28C85 23.0295 80.9705 19 76 19C71.0295 19 67 23.0295 67 28C67 32.9705 71.0295 37 76 37Z" stroke="currentColor" stroke-width="2" stroke-linecap="round" stroke-linejoin="round"/>
<path d="M76 75C80.9705 75 85 70.9705 85 66C85 61.0295 80.9705 57 76 57C71.0295 57 67 61.0295 67 66C67 70.9705 71.0295 75 76 75Z" stroke="currentColor" stroke-width="2" stroke-linecap="round" stroke-linejoin="round"/>
<path d="M10 37C14.9705 37 19 32.9705 19 28C19 23.0295 14.9705 19 10 19C5.02943 19 1 23.0295 1 28C1 32.9705 5.02943 37 10 37Z" stroke="currentColor" stroke-width="2" stroke-linecap="round" stroke-linejoin="round"/>
<path d="M10 75C14.9705 75 19 70.9705 19 66C19 61.0295 14.9705 57 10 57C5.02943 57 1 61.0295 1 66C1 70.9705 5.02943 75 10 75Z" stroke="currentColor" stroke-width="2" stroke-linecap="round" stroke-linejoin="round"/>
<path d="M43.6062 25L49.2973 29.1514L56.3416 29.138L58.5056 35.8417L64.2124 39.9713L62.0229 46.6667L64.2124 53.362L58.5056 57.4917L56.3416 64.1953L49.2973 64.182L43.6062 68.3333L37.9151 64.182L30.8709 64.1953L28.7068 57.4917L23 53.362L25.1896 46.6667L23 39.9713L28.7068 35.8417L30.8709 29.138L37.9151 29.1514L43.6062 25Z" stroke="currentColor" stroke-width="2" stroke-linecap="round" stroke-linejoin="round"/>
<path d="M36.0234 46.6667L41.4401 52.0833L52.2734 41.25" stroke="currentColor" stroke-width="2" stroke-linecap="round" stroke-linejoin="round"/>
</svg>
